<svg width="50" height="50" viewBox="0 0 50 50" fill="none" xmlns="http://www.w3.org/2000/svg">
<circle cx="25" cy="25" r="25" fill="#D10010"/>
<path d="M29.2727 14C30.776 14 32 15.2342 32 16.75V33.25C32 34.7658 30.776 36 29.2727 36H19.7273C18.224 36 17 34.7658 17 33.25V16.75C17 15.2342 18.224 14 19.7273 14H29.2727ZM22.4545 33.25C22.4545 33.6284 22.7622 33.9386 23.1375 33.9386H25.8647C26.24 33.9386 26.5476 33.6284 26.5476 33.25C26.5476 32.8716 26.24 32.5614 25.8647 32.5614H23.1375C22.7622 32.5636 22.4545 32.8716 22.4545 33.25Z" fill="white"/>
</svg>
